<mxfile host="app.diagrams.net" agent="Mozilla/5.0 (Windows NT 10.0; Win64; x64) AppleWebKit/537.36 (KHTML, like Gecko) Chrome/133.0.0.0 Safari/537.36" version="26.0.16">
  <diagram name="Página-1" id="EHuPjGI-IX7gI_r4c0k1">
    <mxGraphModel dx="880" dy="460" grid="1" gridSize="10" guides="1" tooltips="1" connect="1" arrows="1" fold="1" page="1" pageScale="1" pageWidth="827" pageHeight="1169" background="none" math="0" shadow="0">
      <root>
        <mxCell id="0" />
        <mxCell id="1" parent="0" />
        <mxCell id="oq8lmb-Xa7EGAaa9-nUp-2" value="&lt;font style=&quot;vertical-align: inherit;&quot;&gt;&lt;font style=&quot;vertical-align: inherit;&quot;&gt;Cliente&lt;/font&gt;&lt;/font&gt;" style="shape=umlActor;verticalLabelPosition=top;verticalAlign=bottom;html=1;outlineConnect=0;fillColor=#FAE5C7;labelPosition=center;align=center;labelBackgroundColor=none;strokeColor=#0F8B8D;fontColor=#143642;" vertex="1" parent="1">
          <mxGeometry x="99" y="120" width="30" height="60" as="geometry" />
        </mxCell>
        <mxCell id="oq8lmb-Xa7EGAaa9-nUp-6" value="&lt;div&gt;&lt;font style=&quot;vertical-align: inherit;&quot;&gt;&lt;font style=&quot;vertical-align: inherit;&quot;&gt;PJ&lt;/font&gt;&lt;/font&gt;&lt;/div&gt;" style="shape=umlActor;verticalLabelPosition=bottom;verticalAlign=top;html=1;outlineConnect=0;fillColor=#FAE5C7;labelBackgroundColor=none;strokeColor=#0F8B8D;fontColor=#143642;" vertex="1" parent="1">
          <mxGeometry x="129" y="270" width="30" height="60" as="geometry" />
        </mxCell>
        <mxCell id="oq8lmb-Xa7EGAaa9-nUp-9" value="&lt;div&gt;&lt;font style=&quot;vertical-align: inherit;&quot;&gt;&lt;font style=&quot;vertical-align: inherit;&quot;&gt;PF&lt;/font&gt;&lt;/font&gt;&lt;/div&gt;" style="shape=umlActor;verticalLabelPosition=bottom;verticalAlign=top;html=1;outlineConnect=0;fillColor=#FAE5C7;labelBackgroundColor=none;strokeColor=#0F8B8D;fontColor=#143642;" vertex="1" parent="1">
          <mxGeometry x="69" y="270" width="30" height="60" as="geometry" />
        </mxCell>
        <mxCell id="oq8lmb-Xa7EGAaa9-nUp-11" value="" style="endArrow=block;html=1;rounded=0;exitX=0.5;exitY=0;exitDx=0;exitDy=0;exitPerimeter=0;endFill=0;labelBackgroundColor=none;strokeColor=#A8201A;fontColor=default;" edge="1" parent="1" source="oq8lmb-Xa7EGAaa9-nUp-9" target="oq8lmb-Xa7EGAaa9-nUp-2">
          <mxGeometry width="50" height="50" relative="1" as="geometry">
            <mxPoint x="89" y="270" as="sourcePoint" />
            <mxPoint x="99" y="200" as="targetPoint" />
          </mxGeometry>
        </mxCell>
        <mxCell id="oq8lmb-Xa7EGAaa9-nUp-12" value="" style="endArrow=block;html=1;rounded=0;exitX=0.5;exitY=0;exitDx=0;exitDy=0;exitPerimeter=0;endFill=0;labelBackgroundColor=none;strokeColor=#A8201A;fontColor=default;" edge="1" parent="1" source="oq8lmb-Xa7EGAaa9-nUp-6" target="oq8lmb-Xa7EGAaa9-nUp-2">
          <mxGeometry width="50" height="50" relative="1" as="geometry">
            <mxPoint x="94" y="280" as="sourcePoint" />
            <mxPoint x="117" y="190" as="targetPoint" />
          </mxGeometry>
        </mxCell>
        <mxCell id="oq8lmb-Xa7EGAaa9-nUp-26" value="&lt;div&gt;&lt;font style=&quot;vertical-align: inherit;&quot;&gt;&lt;font style=&quot;vertical-align: inherit;&quot;&gt;Funcionário&lt;/font&gt;&lt;/font&gt;&lt;/div&gt;" style="shape=umlActor;verticalLabelPosition=top;verticalAlign=bottom;html=1;outlineConnect=0;fillColor=#FAE5C7;labelPosition=center;align=center;labelBackgroundColor=none;strokeColor=#0F8B8D;fontColor=#143642;" vertex="1" parent="1">
          <mxGeometry x="699" y="120" width="30" height="60" as="geometry" />
        </mxCell>
        <mxCell id="oq8lmb-Xa7EGAaa9-nUp-27" value="&lt;div&gt;&lt;font style=&quot;vertical-align: inherit;&quot;&gt;&lt;font style=&quot;vertical-align: inherit;&quot;&gt;Caixa&lt;/font&gt;&lt;/font&gt;&lt;/div&gt;" style="shape=umlActor;verticalLabelPosition=bottom;verticalAlign=top;html=1;outlineConnect=0;fillColor=#FAE5C7;labelBackgroundColor=none;strokeColor=#0F8B8D;fontColor=#143642;" vertex="1" parent="1">
          <mxGeometry x="729" y="270" width="30" height="60" as="geometry" />
        </mxCell>
        <mxCell id="oq8lmb-Xa7EGAaa9-nUp-28" value="&lt;div&gt;&lt;font style=&quot;vertical-align: inherit;&quot;&gt;&lt;font style=&quot;vertical-align: inherit;&quot;&gt;Gerente&lt;/font&gt;&lt;/font&gt;&lt;/div&gt;" style="shape=umlActor;verticalLabelPosition=bottom;verticalAlign=top;html=1;outlineConnect=0;fillColor=#FAE5C7;labelBackgroundColor=none;strokeColor=#0F8B8D;fontColor=#143642;" vertex="1" parent="1">
          <mxGeometry x="669" y="270" width="30" height="60" as="geometry" />
        </mxCell>
        <mxCell id="oq8lmb-Xa7EGAaa9-nUp-29" value="" style="endArrow=block;html=1;rounded=0;exitX=0.5;exitY=0;exitDx=0;exitDy=0;exitPerimeter=0;endFill=0;labelBackgroundColor=none;strokeColor=#A8201A;fontColor=default;" edge="1" parent="1" source="oq8lmb-Xa7EGAaa9-nUp-28" target="oq8lmb-Xa7EGAaa9-nUp-26">
          <mxGeometry width="50" height="50" relative="1" as="geometry">
            <mxPoint x="689" y="270" as="sourcePoint" />
            <mxPoint x="699" y="200" as="targetPoint" />
          </mxGeometry>
        </mxCell>
        <mxCell id="oq8lmb-Xa7EGAaa9-nUp-30" value="" style="endArrow=block;html=1;rounded=0;exitX=0.5;exitY=0;exitDx=0;exitDy=0;exitPerimeter=0;endFill=0;labelBackgroundColor=none;strokeColor=#A8201A;fontColor=default;" edge="1" parent="1" source="oq8lmb-Xa7EGAaa9-nUp-27" target="oq8lmb-Xa7EGAaa9-nUp-26">
          <mxGeometry width="50" height="50" relative="1" as="geometry">
            <mxPoint x="694" y="280" as="sourcePoint" />
            <mxPoint x="717" y="190" as="targetPoint" />
          </mxGeometry>
        </mxCell>
        <mxCell id="oq8lmb-Xa7EGAaa9-nUp-32" value="" style="rounded=0;whiteSpace=wrap;html=1;labelBackgroundColor=none;fillColor=#FAE5C7;strokeColor=#0F8B8D;fontColor=#143642;" vertex="1" parent="1">
          <mxGeometry x="219" y="40" width="400" height="440" as="geometry" />
        </mxCell>
        <mxCell id="oq8lmb-Xa7EGAaa9-nUp-33" value="Sistema bancário" style="text;html=1;align=center;verticalAlign=middle;whiteSpace=wrap;rounded=0;labelBackgroundColor=none;fontColor=#143642;" vertex="1" parent="1">
          <mxGeometry x="329" y="50" width="170" height="30" as="geometry" />
        </mxCell>
        <mxCell id="oq8lmb-Xa7EGAaa9-nUp-34" value="Abrir Conta" style="ellipse;whiteSpace=wrap;html=1;fillColor=#FAE5C7;strokeColor=#0F8B8D;labelBackgroundColor=none;fontColor=#143642;" vertex="1" parent="1">
          <mxGeometry x="359" y="80" width="100" height="40" as="geometry" />
        </mxCell>
        <mxCell id="oq8lmb-Xa7EGAaa9-nUp-35" value="Tirar Extrato" style="ellipse;whiteSpace=wrap;html=1;fillColor=#FAE5C7;strokeColor=#0F8B8D;labelBackgroundColor=none;fontColor=#143642;" vertex="1" parent="1">
          <mxGeometry x="259" y="260" width="100" height="40" as="geometry" />
        </mxCell>
        <mxCell id="oq8lmb-Xa7EGAaa9-nUp-36" value="Tirar saldo" style="ellipse;whiteSpace=wrap;html=1;fillColor=#FAE5C7;strokeColor=#0F8B8D;labelBackgroundColor=none;fontColor=#143642;" vertex="1" parent="1">
          <mxGeometry x="259" y="210" width="100" height="40" as="geometry" />
        </mxCell>
        <UserObject label="" tooltip="Associação" id="oq8lmb-Xa7EGAaa9-nUp-39">
          <mxCell style="endArrow=none;html=1;rounded=0;entryX=0;entryY=0.5;entryDx=0;entryDy=0;labelBackgroundColor=none;strokeColor=#A8201A;fontColor=default;" edge="1" parent="1" source="oq8lmb-Xa7EGAaa9-nUp-2" target="oq8lmb-Xa7EGAaa9-nUp-34">
            <mxGeometry relative="1" as="geometry">
              <mxPoint x="139" y="130" as="sourcePoint" />
              <mxPoint x="299" y="130" as="targetPoint" />
            </mxGeometry>
          </mxCell>
        </UserObject>
        <object label="" tooltip="Associação" id="oq8lmb-Xa7EGAaa9-nUp-40">
          <mxCell style="endArrow=none;html=1;rounded=0;exitX=1;exitY=0.5;exitDx=0;exitDy=0;labelBackgroundColor=none;strokeColor=#A8201A;fontColor=default;" edge="1" parent="1" source="oq8lmb-Xa7EGAaa9-nUp-34" target="oq8lmb-Xa7EGAaa9-nUp-26">
            <mxGeometry relative="1" as="geometry">
              <mxPoint x="549" y="158" as="sourcePoint" />
              <mxPoint x="779" y="130" as="targetPoint" />
            </mxGeometry>
          </mxCell>
        </object>
        <UserObject label="" tooltip="Associação" id="oq8lmb-Xa7EGAaa9-nUp-41">
          <mxCell style="endArrow=none;html=1;rounded=0;entryX=0;entryY=0.5;entryDx=0;entryDy=0;labelBackgroundColor=none;strokeColor=#A8201A;fontColor=default;" edge="1" parent="1" source="oq8lmb-Xa7EGAaa9-nUp-2" target="oq8lmb-Xa7EGAaa9-nUp-36">
            <mxGeometry relative="1" as="geometry">
              <mxPoint x="129" y="170" as="sourcePoint" />
              <mxPoint x="289" y="170" as="targetPoint" />
            </mxGeometry>
          </mxCell>
        </UserObject>
        <UserObject label="" tooltip="Associação" id="oq8lmb-Xa7EGAaa9-nUp-42">
          <mxCell style="endArrow=none;html=1;rounded=0;entryX=0;entryY=0.5;entryDx=0;entryDy=0;labelBackgroundColor=none;strokeColor=#A8201A;fontColor=default;" edge="1" parent="1" source="oq8lmb-Xa7EGAaa9-nUp-2" target="oq8lmb-Xa7EGAaa9-nUp-35">
            <mxGeometry relative="1" as="geometry">
              <mxPoint x="139" y="165" as="sourcePoint" />
              <mxPoint x="279" y="210" as="targetPoint" />
            </mxGeometry>
          </mxCell>
        </UserObject>
        <mxCell id="oq8lmb-Xa7EGAaa9-nUp-43" value="Abrir Conta Corrente" style="ellipse;whiteSpace=wrap;html=1;fillColor=#FAE5C7;strokeColor=#0F8B8D;labelBackgroundColor=none;fontColor=#143642;" vertex="1" parent="1">
          <mxGeometry x="277" y="140" width="100" height="40" as="geometry" />
        </mxCell>
        <mxCell id="oq8lmb-Xa7EGAaa9-nUp-44" value="Abrir Conta Poupança" style="ellipse;whiteSpace=wrap;html=1;fillColor=#FAE5C7;strokeColor=#0F8B8D;labelBackgroundColor=none;fontColor=#143642;" vertex="1" parent="1">
          <mxGeometry x="389" y="140" width="100" height="40" as="geometry" />
        </mxCell>
        <UserObject label="" tooltip="Relacionamento de Generalização" id="oq8lmb-Xa7EGAaa9-nUp-51">
          <mxCell style="endArrow=block;html=1;rounded=0;entryX=0;entryY=1;entryDx=0;entryDy=0;exitX=0.5;exitY=0;exitDx=0;exitDy=0;endFill=0;labelBackgroundColor=none;strokeColor=#A8201A;fontColor=default;" edge="1" parent="1" source="oq8lmb-Xa7EGAaa9-nUp-43" target="oq8lmb-Xa7EGAaa9-nUp-34">
            <mxGeometry width="50" height="50" relative="1" as="geometry">
              <mxPoint x="339" y="190" as="sourcePoint" />
              <mxPoint x="389" y="140" as="targetPoint" />
            </mxGeometry>
          </mxCell>
        </UserObject>
        <UserObject label="" tooltip="Relacionamento de Generalização" id="oq8lmb-Xa7EGAaa9-nUp-52">
          <mxCell style="endArrow=block;html=1;rounded=0;entryX=0.76;entryY=0.925;entryDx=0;entryDy=0;entryPerimeter=0;exitX=0.5;exitY=0;exitDx=0;exitDy=0;endFill=0;labelBackgroundColor=none;strokeColor=#A8201A;fontColor=default;" edge="1" parent="1" source="oq8lmb-Xa7EGAaa9-nUp-44" target="oq8lmb-Xa7EGAaa9-nUp-34">
            <mxGeometry width="50" height="50" relative="1" as="geometry">
              <mxPoint x="459" y="200" as="sourcePoint" />
              <mxPoint x="509" y="150" as="targetPoint" />
            </mxGeometry>
          </mxCell>
        </UserObject>
        <mxCell id="oq8lmb-Xa7EGAaa9-nUp-60" style="edgeStyle=orthogonalEdgeStyle;rounded=0;orthogonalLoop=1;jettySize=auto;html=1;dashed=1;endArrow=open;endFill=0;labelBackgroundColor=none;strokeColor=#A8201A;fontColor=default;" edge="1" parent="1" source="oq8lmb-Xa7EGAaa9-nUp-53" target="oq8lmb-Xa7EGAaa9-nUp-59">
          <mxGeometry relative="1" as="geometry" />
        </mxCell>
        <mxCell id="oq8lmb-Xa7EGAaa9-nUp-64" value="&amp;lt;&amp;lt;include&amp;gt;&amp;gt;" style="edgeLabel;html=1;align=center;verticalAlign=middle;resizable=0;points=[];labelBackgroundColor=none;fontColor=#143642;" vertex="1" connectable="0" parent="oq8lmb-Xa7EGAaa9-nUp-60">
          <mxGeometry x="-0.1139" relative="1" as="geometry">
            <mxPoint y="-10" as="offset" />
          </mxGeometry>
        </mxCell>
        <mxCell id="oq8lmb-Xa7EGAaa9-nUp-53" value="Fazer Saque" style="ellipse;whiteSpace=wrap;html=1;fillColor=#FAE5C7;strokeColor=#0F8B8D;labelBackgroundColor=none;fontColor=#143642;" vertex="1" parent="1">
          <mxGeometry x="259" y="310" width="100" height="40" as="geometry" />
        </mxCell>
        <mxCell id="oq8lmb-Xa7EGAaa9-nUp-54" value="Fazer Depósito" style="ellipse;whiteSpace=wrap;html=1;fillColor=#FAE5C7;strokeColor=#0F8B8D;labelBackgroundColor=none;fontColor=#143642;" vertex="1" parent="1">
          <mxGeometry x="499" y="200" width="100" height="40" as="geometry" />
        </mxCell>
        <UserObject label="" tooltip="Associação" id="oq8lmb-Xa7EGAaa9-nUp-55">
          <mxCell style="endArrow=none;html=1;rounded=0;entryX=0;entryY=0.5;entryDx=0;entryDy=0;labelBackgroundColor=none;strokeColor=#A8201A;fontColor=default;" edge="1" parent="1" source="oq8lmb-Xa7EGAaa9-nUp-2" target="oq8lmb-Xa7EGAaa9-nUp-53">
            <mxGeometry relative="1" as="geometry">
              <mxPoint x="139" y="158" as="sourcePoint" />
              <mxPoint x="369" y="130" as="targetPoint" />
            </mxGeometry>
          </mxCell>
        </UserObject>
        <mxCell id="oq8lmb-Xa7EGAaa9-nUp-56" value="Encerrar Conta" style="ellipse;whiteSpace=wrap;html=1;fillColor=#FAE5C7;strokeColor=#0F8B8D;labelBackgroundColor=none;fontColor=#143642;" vertex="1" parent="1">
          <mxGeometry x="299" y="410" width="100" height="40" as="geometry" />
        </mxCell>
        <UserObject label="" tooltip="Associação" id="oq8lmb-Xa7EGAaa9-nUp-57">
          <mxCell style="endArrow=none;html=1;rounded=0;entryX=0;entryY=0.5;entryDx=0;entryDy=0;labelBackgroundColor=none;strokeColor=#A8201A;fontColor=default;" edge="1" parent="1" source="oq8lmb-Xa7EGAaa9-nUp-2" target="oq8lmb-Xa7EGAaa9-nUp-56">
            <mxGeometry relative="1" as="geometry">
              <mxPoint x="139" y="190" as="sourcePoint" />
              <mxPoint x="254" y="420" as="targetPoint" />
            </mxGeometry>
          </mxCell>
        </UserObject>
        <UserObject label="" tooltip="Associação" id="oq8lmb-Xa7EGAaa9-nUp-58">
          <mxCell style="endArrow=none;html=1;rounded=0;entryX=0;entryY=0.5;entryDx=0;entryDy=0;labelBackgroundColor=none;strokeColor=#A8201A;fontColor=default;" edge="1" parent="1" source="oq8lmb-Xa7EGAaa9-nUp-2" target="oq8lmb-Xa7EGAaa9-nUp-54">
            <mxGeometry relative="1" as="geometry">
              <mxPoint x="149" y="200" as="sourcePoint" />
              <mxPoint x="264" y="430" as="targetPoint" />
            </mxGeometry>
          </mxCell>
        </UserObject>
        <mxCell id="oq8lmb-Xa7EGAaa9-nUp-59" value="Realizar Transação" style="ellipse;whiteSpace=wrap;html=1;fillColor=#FAE5C7;strokeColor=#0F8B8D;labelBackgroundColor=none;fontColor=#143642;" vertex="1" parent="1">
          <mxGeometry x="459" y="290" width="100" height="40" as="geometry" />
        </mxCell>
        <mxCell id="oq8lmb-Xa7EGAaa9-nUp-62" value="" style="endArrow=open;html=1;rounded=0;entryX=0.5;entryY=0;entryDx=0;entryDy=0;exitX=0.61;exitY=1;exitDx=0;exitDy=0;exitPerimeter=0;endFill=0;dashed=1;labelBackgroundColor=none;strokeColor=#A8201A;fontColor=default;" edge="1" parent="1" source="oq8lmb-Xa7EGAaa9-nUp-54" target="oq8lmb-Xa7EGAaa9-nUp-59">
          <mxGeometry width="50" height="50" relative="1" as="geometry">
            <mxPoint x="469" y="310" as="sourcePoint" />
            <mxPoint x="519" y="260" as="targetPoint" />
          </mxGeometry>
        </mxCell>
        <mxCell id="oq8lmb-Xa7EGAaa9-nUp-63" value="&amp;lt;&amp;lt;include&amp;gt;&amp;gt;" style="edgeLabel;html=1;align=center;verticalAlign=middle;resizable=0;points=[];labelBackgroundColor=none;fontColor=#143642;" vertex="1" connectable="0" parent="oq8lmb-Xa7EGAaa9-nUp-62">
          <mxGeometry x="0.0683" relative="1" as="geometry">
            <mxPoint as="offset" />
          </mxGeometry>
        </mxCell>
        <object label="" tooltip="Associação" id="oq8lmb-Xa7EGAaa9-nUp-65">
          <mxCell style="endArrow=none;html=1;rounded=0;exitX=1;exitY=0.5;exitDx=0;exitDy=0;labelBackgroundColor=none;strokeColor=#A8201A;fontColor=default;" edge="1" parent="1" source="oq8lmb-Xa7EGAaa9-nUp-56" target="oq8lmb-Xa7EGAaa9-nUp-26">
            <mxGeometry relative="1" as="geometry">
              <mxPoint x="469" y="130" as="sourcePoint" />
              <mxPoint x="799" y="159" as="targetPoint" />
              <Array as="points">
                <mxPoint x="579" y="370" />
              </Array>
            </mxGeometry>
          </mxCell>
        </object>
        <UserObject label="" tooltip="" id="oq8lmb-Xa7EGAaa9-nUp-69">
          <mxCell style="endArrow=open;html=1;rounded=0;exitX=0.61;exitY=0.975;exitDx=0;exitDy=0;exitPerimeter=0;dashed=1;endFill=0;labelBackgroundColor=none;strokeColor=#A8201A;fontColor=default;" edge="1" parent="1" source="oq8lmb-Xa7EGAaa9-nUp-53">
            <mxGeometry width="50" height="50" relative="1" as="geometry">
              <mxPoint x="319" y="420" as="sourcePoint" />
              <mxPoint x="335" y="410" as="targetPoint" />
            </mxGeometry>
          </mxCell>
        </UserObject>
        <mxCell id="oq8lmb-Xa7EGAaa9-nUp-70" value="&amp;lt;&amp;lt;extend&amp;gt;&amp;gt;" style="edgeLabel;html=1;align=center;verticalAlign=middle;resizable=0;points=[];labelBackgroundColor=none;fontColor=#143642;" vertex="1" connectable="0" parent="oq8lmb-Xa7EGAaa9-nUp-69">
          <mxGeometry x="-0.1312" y="-1" relative="1" as="geometry">
            <mxPoint as="offset" />
          </mxGeometry>
        </mxCell>
        <mxCell id="oq8lmb-Xa7EGAaa9-nUp-72" style="edgeStyle=orthogonalEdgeStyle;rounded=0;orthogonalLoop=1;jettySize=auto;html=1;endArrow=none;startFill=0;dashed=1;labelBackgroundColor=none;strokeColor=#A8201A;fontColor=default;" edge="1" parent="1" source="oq8lmb-Xa7EGAaa9-nUp-71">
          <mxGeometry relative="1" as="geometry">
            <mxPoint x="319" y="375" as="targetPoint" />
          </mxGeometry>
        </mxCell>
        <mxCell id="oq8lmb-Xa7EGAaa9-nUp-71" value="Se houver saldo" style="shape=note;whiteSpace=wrap;html=1;backgroundOutline=1;darkOpacity=0.05;fillColor=#FAE5C7;strokeColor=#0F8B8D;labelBackgroundColor=none;fontColor=#143642;" vertex="1" parent="1">
          <mxGeometry x="377" y="360" width="96" height="30" as="geometry" />
        </mxCell>
        <mxCell id="oq8lmb-Xa7EGAaa9-nUp-73" value="" style="endArrow=open;html=1;rounded=0;entryX=0.71;entryY=0;entryDx=0;entryDy=0;exitX=0.95;exitY=0.775;exitDx=0;exitDy=0;exitPerimeter=0;endFill=0;dashed=1;entryPerimeter=0;labelBackgroundColor=none;strokeColor=#A8201A;fontColor=default;" edge="1" parent="1" source="oq8lmb-Xa7EGAaa9-nUp-34" target="oq8lmb-Xa7EGAaa9-nUp-54">
          <mxGeometry width="50" height="50" relative="1" as="geometry">
            <mxPoint x="540" y="120" as="sourcePoint" />
            <mxPoint x="509" y="170" as="targetPoint" />
          </mxGeometry>
        </mxCell>
        <mxCell id="oq8lmb-Xa7EGAaa9-nUp-74" value="&amp;lt;&amp;lt;include&amp;gt;&amp;gt;" style="edgeLabel;html=1;align=center;verticalAlign=middle;resizable=0;points=[];labelBackgroundColor=none;fontColor=#143642;" vertex="1" connectable="0" parent="oq8lmb-Xa7EGAaa9-nUp-73">
          <mxGeometry x="0.0683" relative="1" as="geometry">
            <mxPoint as="offset" />
          </mxGeometry>
        </mxCell>
      </root>
    </mxGraphModel>
  </diagram>
</mxfile>
